<?xml version="1.0" standalone="no"?>
<!DOCTYPE svg PUBLIC "-//W3C//DTD SVG 20010904//EN"
 "http://www.w3.org/TR/2001/REC-SVG-20010904/DTD/svg10.dtd">
<svg version="1.0" xmlns="http://www.w3.org/2000/svg"
 width="300.000000pt" height="300.000000pt" viewBox="0 0 300.000000 300.000000"
 preserveAspectRatio="xMidYMid meet">
<metadata>
Created by potrace 1.10, written by Peter Selinger 2001-2011
</metadata>
<g transform="translate(0.000000,300.000000) scale(0.100000,-0.100000)"
fill="#000000" stroke="none">
<path d="M1450 2693 c-42 -128 -44 -133 -71 -133 -15 0 -58 -7 -96 -15 -206
-43 -377 -139 -529 -297 -141 -145 -234 -338 -269 -554 l-6 -40 -129 -38 c-71
-21 -128 -42 -125 -45 2 -4 59 -29 127 -56 l124 -48 27 -111 c31 -128 109
-296 182 -393 l47 -62 -46 -57 c-57 -69 -60 -101 -14 -139 41 -35 76 -28 139
25 26 22 53 40 59 40 6 0 34 -18 63 -39 101 -75 284 -151 406 -167 28 -3 55
-12 60 -18 4 -6 28 -71 52 -143 24 -73 46 -133 49 -133 3 0 25 61 50 136 25
75 49 139 55 143 5 4 42 13 80 21 311 59 573 258 717 545 42 82 82 206 98 299
l12 65 126 42 c70 23 131 45 135 49 16 14 -88 -2 -172 -27 -103 -30 -117 -25
-18 7 l72 23 -82 26 c-45 14 -85 29 -88 32 -3 4 -17 54 -30 112 -91 402 -378
687 -774 769 -51 10 -101 17 -110 15 -9 -2 7 -7 34 -11 233 -36 418 -125 571
-276 104 -103 214 -283 214 -352 0 -9 7 -24 16 -33 9 -9 14 -18 11 -21 -3 -3
0 -20 7 -37 7 -18 12 -59 11 -91 -1 -39 2 -53 7 -40 6 15 7 12 4 -9 -4 -34 26
-67 56 -62 14 3 18 0 14 -10 -2 -7 0 -16 7 -18 7 -3 -11 -8 -39 -12 -47 -7
-53 -10 -68 -44 -9 -21 -16 -44 -16 -52 -1 -10 -4 -9 -15 4 -13 18 -14 18 -17
-4 -2 -12 -9 -24 -16 -27 -7 -2 -10 2 -6 12 3 9 2 16 -4 16 -5 0 -8 12 -6 28
1 15 0 47 -4 72 l-7 45 -6 -65 -6 -65 -1 82 c-5 223 -79 406 -225 560 -147
155 -341 243 -533 243 l-57 0 6 183 c3 100 2 205 -2 232 l-7 50 -44 -132z
m-27 -160 c-7 -2 -21 -2 -30 0 -10 3 -4 5 12 5 17 0 24 -2 18 -5z m-96 -10
c-4 -3 -10 -3 -14 0 -3 4 0 7 7 7 7 0 10 -3 7 -7z m-50 -10 c-4 -3 -10 -3 -14
0 -3 4 0 7 7 7 7 0 10 -3 7 -7z m-40 -10 c-4 -3 -10 -3 -14 0 -3 4 0 7 7 7 7
0 10 -3 7 -7z m-30 -10 c-4 -3 -10 -3 -14 0 -3 4 0 7 7 7 7 0 10 -3 7 -7z
m-30 -10 c-4 -3 -10 -3 -14 0 -3 4 0 7 7 7 7 0 10 -3 7 -7z m251 -120 c-10 -2
-28 -2 -40 0 -13 2 -5 4 17 4 22 1 32 -1 23 -4z m-101 -10 c-4 -3 -10 -3 -14
0 -3 4 0 7 7 7 7 0 10 -3 7 -7z m-50 -10 c-4 -3 -10 -3 -14 0 -3 4 0 7 7 7 7
0 10 -3 7 -7z m208 -33 c4 -6 15 -5 30 2 17 8 48 8 115 -1 171 -22 287 -80
416 -206 132 -130 201 -271 225 -456 13 -102 1 -232 -32 -326 -48 -142 -153
-290 -262 -369 -63 -47 -83 -64 -58 -49 9 5 12 4 7 -3 -4 -6 -13 -9 -21 -5 -8
3 -15 0 -15 -7 0 -6 -5 -8 -12 -4 -7 4 -8 3 -4 -4 5 -8 0 -12 -12 -12 -19 0
-38 -27 -27 -38 3 -3 5 -1 5 5 0 10 36 26 53 24 4 -1 7 4 7 9 0 6 5 10 11 10
20 0 132 86 181 138 96 103 172 248 201 387 9 39 16 59 16 46 3 -86 -96 -309
-182 -409 -146 -169 -334 -266 -556 -286 l-73 -6 4 24 c3 14 1 31 -3 38 -7 10
-9 10 -9 1 0 -19 -108 -17 -184 3 -78 20 -188 72 -249 119 l-49 37 42 43 42
43 47 -33 c68 -48 124 -74 208 -96 247 -63 532 44 674 253 82 120 124 251 113
349 -4 33 -8 58 -10 56 -2 -2 -8 -28 -13 -58 -9 -52 -9 -51 -7 31 l1 85 -304
3 c-233 2 -307 -1 -320 -10 -14 -12 -14 -11 -2 5 7 9 10 17 6 17 -4 0 -2 8 6
18 7 9 -38 -32 -99 -93 l-112 -110 127 -6 c71 -4 206 -7 301 -8 130 -1 172 -4
172 -13 0 -7 -11 -36 -24 -65 -28 -60 -92 -133 -145 -165 -20 -12 -38 -24 -41
-27 -3 -4 -14 -7 -25 -9 -56 -9 -75 -15 -75 -24 0 -6 -13 -7 -31 -3 -24 6 -30
4 -27 -6 10 -30 142 2 233 56 33 19 49 26 35 14 -66 -56 -197 -100 -290 -97
-35 1 -43 3 -22 5 53 7 39 30 -23 36 -160 16 -302 154 -335 325 -26 133 9 250
105 348 70 72 139 109 235 126 113 20 243 -24 335 -113 l41 -39 89 91 c66 66
83 89 65 84 -14 -4 -52 -33 -85 -65 l-60 -59 -48 44 c-26 24 -71 55 -100 70
-28 14 -41 23 -27 19 36 -9 89 -43 136 -86 l40 -37 58 58 58 58 -44 37 c-108
93 -225 142 -372 155 -50 5 -79 9 -63 10 16 0 27 7 27 15 0 29 -161 -1 -265
-49 -283 -130 -433 -422 -370 -720 16 -74 71 -199 110 -251 l24 -31 -48 -47
-48 -47 -30 38 c-139 178 -190 459 -122 678 75 243 241 420 469 499 105 37
252 57 265 36z m-68 -136 c-3 -3 -12 -4 -19 -1 -8 3 -5 6 6 6 11 1 17 -2 13
-5z m-50 -10 c-3 -3 -12 -4 -19 -1 -8 3 -5 6 6 6 11 1 17 -2 13 -5z m-40 -11
c-4 -3 -10 -3 -14 0 -3 4 0 7 7 7 7 0 10 -3 7 -7z m156 -140 c-7 -2 -21 -2
-30 0 -10 3 -4 5 12 5 17 0 24 -2 18 -5z m95 0 c-10 -2 -28 -2 -40 0 -13 2 -5
4 17 4 22 1 32 -1 23 -4z m49 -9 c-3 -3 -12 -4 -19 -1 -8 3 -5 6 6 6 11 1 17
-2 13 -5z m426 -395 c17 -10 19 -18 14 -81 -3 -39 -11 -76 -17 -82 -8 -8 -10
-7 -5 6 5 12 2 16 -11 14 -10 -2 -21 -11 -25 -22 -6 -14 -8 -15 -9 -4 -2 8 -2
21 -1 29 2 7 -3 10 -9 6 -6 -4 -8 -16 -6 -28 3 -12 -2 -5 -12 15 l-17 38 -265
2 c-146 0 -235 4 -199 7 41 4 72 12 82 23 16 15 16 17 -1 21 -12 3 -9 5 8 7
23 1 23 2 5 10 -18 8 -18 9 -2 9 10 1 16 5 12 10 -9 16 93 27 269 28 103 1
177 -2 189 -8z m-593 -2 c0 -2 -12 -14 -27 -28 l-28 -24 24 28 c23 25 31 32
31 24z m627 -54 c-4 -3 -7 0 -7 7 0 7 3 10 7 7 3 -4 3 -10 0 -14z m-697 -27
c0 -3 -5 -8 -12 -12 -7 -4 -8 -3 -4 4 7 12 16 16 16 8z m1098 -13 c-13 -3 -18
-15 -19 -41 -2 -32 -3 -33 -6 -9 -6 38 3 57 24 56 17 -1 17 -2 1 -6z m-553
-63 c-9 -41 -17 -33 -9 9 4 17 9 30 11 27 3 -2 2 -19 -2 -36z m162 -12 c-3 -7
-5 -2 -5 12 0 14 2 19 5 13 2 -7 2 -19 0 -25z m-70 5 c-4 -3 -7 0 -7 7 0 7 3
10 7 7 3 -4 3 -10 0 -14z m53 -68 c-7 -20 -14 -35 -16 -33 -2 2 2 21 8 41 6
20 13 35 16 33 2 -3 -1 -21 -8 -41z m377 23 c-3 -8 -6 -5 -6 6 -1 11 2 17 5
13 3 -3 4 -12 1 -19z m-557 -37 c-28 -56 -35 -52 -8 4 12 24 23 43 26 41 2 -2
-6 -22 -18 -45z m457 22 c-4 -3 -7 0 -7 7 0 7 3 10 7 7 3 -4 3 -10 0 -14z m90
-35 c-3 -8 -6 -5 -6 6 -1 11 2 17 5 13 3 -3 4 -12 1 -19z m-407 -67 c-28 -56
-35 -52 -8 4 12 24 23 43 26 41 2 -2 -6 -22 -18 -45z m397 27 c-3 -8 -6 -5 -6
6 -1 11 2 17 5 13 3 -3 4 -12 1 -19z m-1276 -15 c13 -16 12 -17 -3 -4 -10 7
-18 15 -18 17 0 8 8 3 21 -13z m709 13 c0 -2 -8 -10 -17 -17 -16 -13 -17 -12
-4 4 13 16 21 21 21 13z m557 -33 c-4 -3 -7 0 -7 7 0 7 3 10 7 7 3 -4 3 -10 0
-14z m-597 -17 c0 -3 -5 -8 -12 -12 -7 -4 -8 -3 -4 4 7 12 16 16 16 8z m587
-13 c-4 -3 -7 0 -7 7 0 7 3 10 7 7 3 -4 3 -10 0 -14z m-1182 -23 c10 -11 16
-20 13 -20 -3 0 -13 9 -23 20 -10 11 -16 20 -13 20 3 0 13 -9 23 -20z m775 6
c0 -3 -5 -8 -12 -12 -7 -4 -8 -3 -4 4 7 12 16 16 16 8z m-664 -74 c-5 -4 -86
36 -86 43 0 3 20 -5 45 -17 24 -12 43 -23 41 -26z m633 31 c-27 -36 -75 -85
-103 -105 -16 -12 2 11 40 49 70 72 87 87 63 56z m-918 -20 c13 -16 12 -17 -3
-4 -10 7 -18 15 -18 17 0 8 8 3 21 -13z m1326 0 c-4 -3 -7 0 -7 7 0 7 3 10 7
7 3 -4 3 -10 0 -14z m-1010 -20 c-4 -3 -10 -3 -14 0 -3 4 0 7 7 7 7 0 10 -3 7
-7z m40 -9 c-3 -3 -12 -4 -19 -1 -8 3 -5 6 6 6 11 1 17 -2 13 -5z m-296 -31
c13 -16 12 -17 -3 -4 -10 7 -18 15 -18 17 0 8 8 3 21 -13z m1218 -35 c-66
-125 -207 -265 -357 -353 -63 -37 -191 -89 -199 -81 -2 2 13 10 34 16 65 21
209 99 275 149 80 61 166 154 214 231 36 59 56 82 33 38z m-499 -13 c0 -2 -10
-9 -22 -15 -22 -11 -22 -10 -4 4 21 17 26 19 26 11z m-55 -35 c-3 -5 -12 -10
-18 -10 -7 0 -6 4 3 10 19 12 23 12 15 0z m-45 -20 c-8 -5 -19 -10 -25 -10 -5
0 -3 5 5 10 8 5 20 10 25 10 6 0 3 -5 -5 -10z m-413 -17 c-4 -3 -10 -3 -14 0
-3 4 0 7 7 7 7 0 10 -3 7 -7z m338 -8 c-22 -8 -51 -13 -65 -13 -14 0 -3 5 25
13 65 17 91 17 40 0z m-298 -1 c-3 -3 -12 -4 -19 -1 -8 3 -5 6 6 6 11 1 17 -2
13 -5z m40 -10 c-3 -3 -12 -4 -19 -1 -8 3 -5 6 6 6 11 1 17 -2 13 -5z m151
-11 c-10 -2 -28 -2 -40 0 -13 2 -5 4 17 4 22 1 32 -1 23 -4z m-513 -53 c3 -5
4 -10 1 -10 -3 0 -8 5 -11 10 -3 6 -4 10 -1 10 3 0 8 -4 11 -10z m60 -40 c3
-5 4 -10 1 -10 -3 0 -8 5 -11 10 -3 6 -4 10 -1 10 3 0 8 -4 11 -10z m92 -47
c-4 -3 -10 -3 -14 0 -3 4 0 7 7 7 7 0 10 -3 7 -7z m30 -10 c-4 -3 -10 -3 -14
0 -3 4 0 7 7 7 7 0 10 -3 7 -7z m60 -20 c-4 -3 -10 -3 -14 0 -3 4 0 7 7 7 7 0
10 -3 7 -7z m50 -9 c-3 -3 -12 -4 -19 -1 -8 3 -5 6 6 6 11 1 17 -2 13 -5z m66
-11 c-7 -2 -19 -2 -25 0 -7 3 -2 5 12 5 14 0 19 -2 13 -5z m-166 -130 c-4 -3
-10 -3 -14 0 -3 4 0 7 7 7 7 0 10 -3 7 -7z m30 -10 c-4 -3 -10 -3 -14 0 -3 4
0 7 7 7 7 0 10 -3 7 -7z m488 -3 c-11 -5 -29 -8 -40 -8 -16 0 -15 2 5 8 34 11
60 11 35 0z m-438 -6 c-3 -3 -12 -4 -19 -1 -8 3 -5 6 6 6 11 1 17 -2 13 -5z
m60 -11 c-4 -3 -10 -3 -14 0 -3 4 0 7 7 7 7 0 10 -3 7 -7z m306 0 c-7 -2 -19
-2 -25 0 -7 3 -2 5 12 5 14 0 19 -2 13 -5z m-65 -10 c-10 -2 -26 -2 -35 0 -10
3 -2 5 17 5 19 0 27 -2 18 -5z"/>
<path d="M2142 1570 c0 -14 2 -19 5 -12 2 6 2 18 0 25 -3 6 -5 1 -5 -13z"/>
<path d="M1797 839 c7 -7 15 -10 18 -7 3 3 -2 9 -12 12 -14 6 -15 5 -6 -5z"/>
<path d="M1773 823 c4 -3 10 -3 14 0 3 4 0 7 -7 7 -7 0 -10 -3 -7 -7z"/>
<path d="M1655 800 c-3 -5 1 -10 10 -10 9 0 13 5 10 10 -3 6 -8 10 -10 10 -2
0 -7 -4 -10 -10z"/>
<path d="M1550 790 c0 -12 8 -12 35 0 18 8 17 9 -7 9 -16 1 -28 -3 -28 -9z"/>
<path d="M2051 1584 c0 -11 3 -14 6 -6 3 7 2 16 -1 19 -3 4 -6 -2 -5 -13z"/>
<path d="M2051 1544 c0 -11 3 -14 6 -6 3 7 2 16 -1 19 -3 4 -6 -2 -5 -13z"/>
<path d="M1521 2654 c0 -11 3 -14 6 -6 3 7 2 16 -1 19 -3 4 -6 -2 -5 -13z"/>
<path d="M1530 2620 c0 -7 3 -10 7 -7 3 4 3 10 0 14 -4 3 -7 0 -7 -7z"/>
<path d="M1541 2590 c0 -8 4 -24 9 -35 5 -13 9 -14 9 -5 0 8 -4 24 -9 35 -5
13 -9 14 -9 5z"/>
</g>
</svg>
